<mxfile host="Electron" modified="2023-06-15T15:14:16.323Z" agent="Mozilla/5.0 (Windows NT 10.0; Win64; x64) AppleWebKit/537.36 (KHTML, like Gecko) draw.io/21.4.0 Chrome/112.0.5615.204 Electron/24.5.1 Safari/537.36" etag="xQ1BJk7ng3Bx7sdI63UL" version="21.4.0" type="device">
  <diagram name="Page-1" id="oL0eZGH5eensEGQ6-rVe">
    <mxGraphModel dx="980" dy="566" grid="1" gridSize="10" guides="1" tooltips="1" connect="1" arrows="1" fold="1" page="1" pageScale="1" pageWidth="827" pageHeight="1169" math="0" shadow="0">
      <root>
        <mxCell id="0" />
        <mxCell id="1" parent="0" />
        <mxCell id="VjrMN6myHZ9YJszXmR57-190" style="edgeStyle=orthogonalEdgeStyle;shape=connector;rounded=0;orthogonalLoop=1;jettySize=auto;html=1;exitX=0;exitY=0.75;exitDx=0;exitDy=0;entryX=0;entryY=0.25;entryDx=0;entryDy=0;labelBackgroundColor=default;strokeColor=#7EA6E0;strokeWidth=3;fontFamily=Helvetica;fontSize=11;fontColor=default;endArrow=none;endFill=0;" edge="1" parent="1" source="VjrMN6myHZ9YJszXmR57-185" target="VjrMN6myHZ9YJszXmR57-188">
          <mxGeometry relative="1" as="geometry" />
        </mxCell>
        <mxCell id="VjrMN6myHZ9YJszXmR57-191" style="edgeStyle=orthogonalEdgeStyle;shape=connector;rounded=0;orthogonalLoop=1;jettySize=auto;html=1;exitX=1;exitY=0.75;exitDx=0;exitDy=0;entryX=0;entryY=0.75;entryDx=0;entryDy=0;labelBackgroundColor=default;strokeColor=#7EA6E0;strokeWidth=3;fontFamily=Helvetica;fontSize=11;fontColor=default;endArrow=none;endFill=0;" edge="1" parent="1" source="VjrMN6myHZ9YJszXmR57-185" target="VjrMN6myHZ9YJszXmR57-189">
          <mxGeometry relative="1" as="geometry" />
        </mxCell>
        <mxCell id="VjrMN6myHZ9YJszXmR57-185" value="" style="rounded=0;whiteSpace=wrap;html=1;fillColor=#7EA6E0;strokeColor=#7EA6E0;movable=1;resizable=1;rotatable=1;deletable=1;editable=1;locked=0;connectable=1;rotation=0;" vertex="1" parent="1">
          <mxGeometry x="210" y="530" width="60" height="28" as="geometry" />
        </mxCell>
        <mxCell id="VjrMN6myHZ9YJszXmR57-193" style="edgeStyle=orthogonalEdgeStyle;shape=connector;rounded=0;orthogonalLoop=1;jettySize=auto;html=1;exitX=0;exitY=0.25;exitDx=0;exitDy=0;entryX=1;entryY=0.25;entryDx=0;entryDy=0;labelBackgroundColor=default;strokeColor=#7EA6E0;strokeWidth=3;fontFamily=Helvetica;fontSize=11;fontColor=default;endArrow=none;endFill=0;" edge="1" parent="1" source="VjrMN6myHZ9YJszXmR57-187" target="VjrMN6myHZ9YJszXmR57-188">
          <mxGeometry relative="1" as="geometry" />
        </mxCell>
        <mxCell id="VjrMN6myHZ9YJszXmR57-195" style="edgeStyle=orthogonalEdgeStyle;shape=connector;rounded=0;orthogonalLoop=1;jettySize=auto;html=1;exitX=1;exitY=0.25;exitDx=0;exitDy=0;entryX=1;entryY=0.75;entryDx=0;entryDy=0;labelBackgroundColor=default;strokeColor=#7EA6E0;strokeWidth=3;fontFamily=Helvetica;fontSize=11;fontColor=default;endArrow=none;endFill=0;" edge="1" parent="1" source="VjrMN6myHZ9YJszXmR57-187" target="VjrMN6myHZ9YJszXmR57-189">
          <mxGeometry relative="1" as="geometry" />
        </mxCell>
        <mxCell id="VjrMN6myHZ9YJszXmR57-187" value="" style="rounded=0;whiteSpace=wrap;html=1;fillColor=#7EA6E0;strokeColor=#7EA6E0;movable=1;resizable=1;rotatable=1;deletable=1;editable=1;locked=0;connectable=1;rotation=0;" vertex="1" parent="1">
          <mxGeometry x="210" y="640" width="60" height="28.5" as="geometry" />
        </mxCell>
        <mxCell id="VjrMN6myHZ9YJszXmR57-188" value="" style="rounded=0;whiteSpace=wrap;html=1;fillColor=#7EA6E0;strokeColor=#7EA6E0;movable=1;resizable=1;rotatable=1;deletable=1;editable=1;locked=0;connectable=1;rotation=90;" vertex="1" parent="1">
          <mxGeometry x="150" y="585" width="60" height="28.5" as="geometry" />
        </mxCell>
        <mxCell id="VjrMN6myHZ9YJszXmR57-189" value="" style="rounded=0;whiteSpace=wrap;html=1;fillColor=#7EA6E0;strokeColor=#7EA6E0;movable=1;resizable=1;rotatable=1;deletable=1;editable=1;locked=0;connectable=1;rotation=90;" vertex="1" parent="1">
          <mxGeometry x="270" y="584.5" width="60" height="28.5" as="geometry" />
        </mxCell>
        <mxCell id="VjrMN6myHZ9YJszXmR57-196" style="edgeStyle=orthogonalEdgeStyle;shape=connector;rounded=0;orthogonalLoop=1;jettySize=auto;html=1;exitX=0;exitY=0.75;exitDx=0;exitDy=0;entryX=0;entryY=0.25;entryDx=0;entryDy=0;labelBackgroundColor=default;strokeColor=#7EA6E0;strokeWidth=3;fontFamily=Helvetica;fontSize=11;fontColor=default;endArrow=none;endFill=0;" edge="1" parent="1" source="VjrMN6myHZ9YJszXmR57-198" target="VjrMN6myHZ9YJszXmR57-202">
          <mxGeometry relative="1" as="geometry" />
        </mxCell>
        <mxCell id="VjrMN6myHZ9YJszXmR57-197" style="edgeStyle=orthogonalEdgeStyle;shape=connector;rounded=0;orthogonalLoop=1;jettySize=auto;html=1;exitX=1;exitY=0.75;exitDx=0;exitDy=0;entryX=0;entryY=0.75;entryDx=0;entryDy=0;labelBackgroundColor=default;strokeColor=#7EA6E0;strokeWidth=3;fontFamily=Helvetica;fontSize=11;fontColor=default;endArrow=none;endFill=0;" edge="1" parent="1" source="VjrMN6myHZ9YJszXmR57-198" target="VjrMN6myHZ9YJszXmR57-203">
          <mxGeometry relative="1" as="geometry" />
        </mxCell>
        <mxCell id="VjrMN6myHZ9YJszXmR57-198" value="" style="rounded=0;whiteSpace=wrap;html=1;fillColor=#7EA6E0;strokeColor=#7EA6E0;movable=1;resizable=1;rotatable=1;deletable=1;editable=1;locked=0;connectable=1;rotation=0;" vertex="1" parent="1">
          <mxGeometry x="330" y="529.5" width="60" height="28" as="geometry" />
        </mxCell>
        <mxCell id="VjrMN6myHZ9YJszXmR57-199" style="edgeStyle=orthogonalEdgeStyle;shape=connector;rounded=0;orthogonalLoop=1;jettySize=auto;html=1;exitX=0;exitY=0.25;exitDx=0;exitDy=0;entryX=1;entryY=0.25;entryDx=0;entryDy=0;labelBackgroundColor=default;strokeColor=#7EA6E0;strokeWidth=3;fontFamily=Helvetica;fontSize=11;fontColor=default;endArrow=none;endFill=0;" edge="1" parent="1" source="VjrMN6myHZ9YJszXmR57-201" target="VjrMN6myHZ9YJszXmR57-202">
          <mxGeometry relative="1" as="geometry" />
        </mxCell>
        <mxCell id="VjrMN6myHZ9YJszXmR57-200" style="edgeStyle=orthogonalEdgeStyle;shape=connector;rounded=0;orthogonalLoop=1;jettySize=auto;html=1;exitX=1;exitY=0.25;exitDx=0;exitDy=0;entryX=1;entryY=0.75;entryDx=0;entryDy=0;labelBackgroundColor=default;strokeColor=#7EA6E0;strokeWidth=3;fontFamily=Helvetica;fontSize=11;fontColor=default;endArrow=none;endFill=0;" edge="1" parent="1" source="VjrMN6myHZ9YJszXmR57-201" target="VjrMN6myHZ9YJszXmR57-203">
          <mxGeometry relative="1" as="geometry" />
        </mxCell>
        <mxCell id="VjrMN6myHZ9YJszXmR57-201" value="" style="rounded=0;whiteSpace=wrap;html=1;fillColor=#7EA6E0;strokeColor=#7EA6E0;movable=1;resizable=1;rotatable=1;deletable=1;editable=1;locked=0;connectable=1;rotation=0;" vertex="1" parent="1">
          <mxGeometry x="330" y="639.5" width="60" height="28.5" as="geometry" />
        </mxCell>
        <mxCell id="VjrMN6myHZ9YJszXmR57-202" value="" style="rounded=0;whiteSpace=wrap;html=1;fillColor=#7EA6E0;strokeColor=#7EA6E0;movable=1;resizable=1;rotatable=1;deletable=1;editable=1;locked=0;connectable=1;rotation=90;" vertex="1" parent="1">
          <mxGeometry x="270" y="584.5" width="60" height="28.5" as="geometry" />
        </mxCell>
        <mxCell id="VjrMN6myHZ9YJszXmR57-203" value="" style="rounded=0;whiteSpace=wrap;html=1;fillColor=#7EA6E0;strokeColor=#7EA6E0;movable=1;resizable=1;rotatable=1;deletable=1;editable=1;locked=0;connectable=1;rotation=90;" vertex="1" parent="1">
          <mxGeometry x="390" y="584" width="60" height="28.5" as="geometry" />
        </mxCell>
        <mxCell id="VjrMN6myHZ9YJszXmR57-212" style="edgeStyle=orthogonalEdgeStyle;shape=connector;rounded=0;orthogonalLoop=1;jettySize=auto;html=1;exitX=0;exitY=0.75;exitDx=0;exitDy=0;entryX=0;entryY=0.25;entryDx=0;entryDy=0;labelBackgroundColor=default;strokeColor=#7EA6E0;strokeWidth=3;fontFamily=Helvetica;fontSize=11;fontColor=default;endArrow=none;endFill=0;" edge="1" parent="1" source="VjrMN6myHZ9YJszXmR57-214" target="VjrMN6myHZ9YJszXmR57-218">
          <mxGeometry relative="1" as="geometry" />
        </mxCell>
        <mxCell id="VjrMN6myHZ9YJszXmR57-213" style="edgeStyle=orthogonalEdgeStyle;shape=connector;rounded=0;orthogonalLoop=1;jettySize=auto;html=1;exitX=1;exitY=0.75;exitDx=0;exitDy=0;entryX=0;entryY=0.75;entryDx=0;entryDy=0;labelBackgroundColor=default;strokeColor=#7EA6E0;strokeWidth=3;fontFamily=Helvetica;fontSize=11;fontColor=default;endArrow=none;endFill=0;" edge="1" parent="1" source="VjrMN6myHZ9YJszXmR57-214" target="VjrMN6myHZ9YJszXmR57-219">
          <mxGeometry relative="1" as="geometry" />
        </mxCell>
        <mxCell id="VjrMN6myHZ9YJszXmR57-214" value="" style="rounded=0;whiteSpace=wrap;html=1;fillColor=#7EA6E0;strokeColor=#7EA6E0;movable=1;resizable=1;rotatable=1;deletable=1;editable=1;locked=0;connectable=1;rotation=0;" vertex="1" parent="1">
          <mxGeometry x="210" y="640.5" width="60" height="28" as="geometry" />
        </mxCell>
        <mxCell id="VjrMN6myHZ9YJszXmR57-215" style="edgeStyle=orthogonalEdgeStyle;shape=connector;rounded=0;orthogonalLoop=1;jettySize=auto;html=1;exitX=0;exitY=0.25;exitDx=0;exitDy=0;entryX=1;entryY=0.25;entryDx=0;entryDy=0;labelBackgroundColor=default;strokeColor=#7EA6E0;strokeWidth=3;fontFamily=Helvetica;fontSize=11;fontColor=default;endArrow=none;endFill=0;" edge="1" parent="1" source="VjrMN6myHZ9YJszXmR57-217" target="VjrMN6myHZ9YJszXmR57-218">
          <mxGeometry relative="1" as="geometry" />
        </mxCell>
        <mxCell id="VjrMN6myHZ9YJszXmR57-216" style="edgeStyle=orthogonalEdgeStyle;shape=connector;rounded=0;orthogonalLoop=1;jettySize=auto;html=1;exitX=1;exitY=0.25;exitDx=0;exitDy=0;entryX=1;entryY=0.75;entryDx=0;entryDy=0;labelBackgroundColor=default;strokeColor=#7EA6E0;strokeWidth=3;fontFamily=Helvetica;fontSize=11;fontColor=default;endArrow=none;endFill=0;" edge="1" parent="1" source="VjrMN6myHZ9YJszXmR57-217" target="VjrMN6myHZ9YJszXmR57-219">
          <mxGeometry relative="1" as="geometry" />
        </mxCell>
        <mxCell id="VjrMN6myHZ9YJszXmR57-217" value="" style="rounded=0;whiteSpace=wrap;html=1;fillColor=#7EA6E0;strokeColor=#7EA6E0;movable=1;resizable=1;rotatable=1;deletable=1;editable=1;locked=0;connectable=1;rotation=0;" vertex="1" parent="1">
          <mxGeometry x="210" y="750.5" width="60" height="28.5" as="geometry" />
        </mxCell>
        <mxCell id="VjrMN6myHZ9YJszXmR57-218" value="" style="rounded=0;whiteSpace=wrap;html=1;fillColor=#7EA6E0;strokeColor=#7EA6E0;movable=1;resizable=1;rotatable=1;deletable=1;editable=1;locked=0;connectable=1;rotation=90;" vertex="1" parent="1">
          <mxGeometry x="150" y="695.5" width="60" height="28.5" as="geometry" />
        </mxCell>
        <mxCell id="VjrMN6myHZ9YJszXmR57-219" value="" style="rounded=0;whiteSpace=wrap;html=1;fillColor=#7EA6E0;strokeColor=#7EA6E0;movable=1;resizable=1;rotatable=1;deletable=1;editable=1;locked=0;connectable=1;rotation=90;" vertex="1" parent="1">
          <mxGeometry x="270" y="695" width="60" height="28.5" as="geometry" />
        </mxCell>
        <mxCell id="VjrMN6myHZ9YJszXmR57-220" style="edgeStyle=orthogonalEdgeStyle;shape=connector;rounded=0;orthogonalLoop=1;jettySize=auto;html=1;exitX=0;exitY=0.75;exitDx=0;exitDy=0;entryX=0;entryY=0.25;entryDx=0;entryDy=0;labelBackgroundColor=default;strokeColor=#7EA6E0;strokeWidth=3;fontFamily=Helvetica;fontSize=11;fontColor=default;endArrow=none;endFill=0;" edge="1" parent="1" source="VjrMN6myHZ9YJszXmR57-222" target="VjrMN6myHZ9YJszXmR57-226">
          <mxGeometry relative="1" as="geometry" />
        </mxCell>
        <mxCell id="VjrMN6myHZ9YJszXmR57-221" style="edgeStyle=orthogonalEdgeStyle;shape=connector;rounded=0;orthogonalLoop=1;jettySize=auto;html=1;exitX=1;exitY=0.75;exitDx=0;exitDy=0;entryX=0;entryY=0.75;entryDx=0;entryDy=0;labelBackgroundColor=default;strokeColor=#7EA6E0;strokeWidth=3;fontFamily=Helvetica;fontSize=11;fontColor=default;endArrow=none;endFill=0;" edge="1" parent="1" source="VjrMN6myHZ9YJszXmR57-222" target="VjrMN6myHZ9YJszXmR57-227">
          <mxGeometry relative="1" as="geometry" />
        </mxCell>
        <mxCell id="VjrMN6myHZ9YJszXmR57-222" value="" style="rounded=0;whiteSpace=wrap;html=1;fillColor=#7EA6E0;strokeColor=#7EA6E0;movable=1;resizable=1;rotatable=1;deletable=1;editable=1;locked=0;connectable=1;rotation=0;" vertex="1" parent="1">
          <mxGeometry x="330" y="640" width="60" height="28" as="geometry" />
        </mxCell>
        <mxCell id="VjrMN6myHZ9YJszXmR57-223" style="edgeStyle=orthogonalEdgeStyle;shape=connector;rounded=0;orthogonalLoop=1;jettySize=auto;html=1;exitX=0;exitY=0.25;exitDx=0;exitDy=0;entryX=1;entryY=0.25;entryDx=0;entryDy=0;labelBackgroundColor=default;strokeColor=#7EA6E0;strokeWidth=3;fontFamily=Helvetica;fontSize=11;fontColor=default;endArrow=none;endFill=0;" edge="1" parent="1" source="VjrMN6myHZ9YJszXmR57-225" target="VjrMN6myHZ9YJszXmR57-226">
          <mxGeometry relative="1" as="geometry" />
        </mxCell>
        <mxCell id="VjrMN6myHZ9YJszXmR57-224" style="edgeStyle=orthogonalEdgeStyle;shape=connector;rounded=0;orthogonalLoop=1;jettySize=auto;html=1;exitX=1;exitY=0.25;exitDx=0;exitDy=0;entryX=1;entryY=0.75;entryDx=0;entryDy=0;labelBackgroundColor=default;strokeColor=#7EA6E0;strokeWidth=3;fontFamily=Helvetica;fontSize=11;fontColor=default;endArrow=none;endFill=0;" edge="1" parent="1" source="VjrMN6myHZ9YJszXmR57-225" target="VjrMN6myHZ9YJszXmR57-227">
          <mxGeometry relative="1" as="geometry" />
        </mxCell>
        <mxCell id="VjrMN6myHZ9YJszXmR57-225" value="" style="rounded=0;whiteSpace=wrap;html=1;fillColor=#7EA6E0;strokeColor=#7EA6E0;movable=1;resizable=1;rotatable=1;deletable=1;editable=1;locked=0;connectable=1;rotation=0;" vertex="1" parent="1">
          <mxGeometry x="330" y="750" width="60" height="28.5" as="geometry" />
        </mxCell>
        <mxCell id="VjrMN6myHZ9YJszXmR57-226" value="" style="rounded=0;whiteSpace=wrap;html=1;fillColor=#7EA6E0;strokeColor=#7EA6E0;movable=1;resizable=1;rotatable=1;deletable=1;editable=1;locked=0;connectable=1;rotation=90;" vertex="1" parent="1">
          <mxGeometry x="270" y="695" width="60" height="28.5" as="geometry" />
        </mxCell>
        <mxCell id="VjrMN6myHZ9YJszXmR57-227" value="" style="rounded=0;whiteSpace=wrap;html=1;fillColor=#7EA6E0;strokeColor=#7EA6E0;movable=1;resizable=1;rotatable=1;deletable=1;editable=1;locked=0;connectable=1;rotation=90;" vertex="1" parent="1">
          <mxGeometry x="390" y="694.5" width="60" height="28.5" as="geometry" />
        </mxCell>
        <mxCell id="VjrMN6myHZ9YJszXmR57-242" value="" style="rounded=0;whiteSpace=wrap;html=1;fillColor=#7EA6E0;strokeColor=#7EA6E0;movable=1;resizable=1;rotatable=1;deletable=1;editable=1;locked=0;connectable=1;rotation=90;" vertex="1" parent="1">
          <mxGeometry x="390" y="585" width="60" height="28.5" as="geometry" />
        </mxCell>
        <mxCell id="VjrMN6myHZ9YJszXmR57-243" style="edgeStyle=orthogonalEdgeStyle;shape=connector;rounded=0;orthogonalLoop=1;jettySize=auto;html=1;exitX=0;exitY=0.75;exitDx=0;exitDy=0;entryX=0;entryY=0.25;entryDx=0;entryDy=0;labelBackgroundColor=default;strokeColor=#7EA6E0;strokeWidth=3;fontFamily=Helvetica;fontSize=11;fontColor=default;endArrow=none;endFill=0;" edge="1" parent="1" source="VjrMN6myHZ9YJszXmR57-245" target="VjrMN6myHZ9YJszXmR57-249">
          <mxGeometry relative="1" as="geometry" />
        </mxCell>
        <mxCell id="VjrMN6myHZ9YJszXmR57-244" style="edgeStyle=orthogonalEdgeStyle;shape=connector;rounded=0;orthogonalLoop=1;jettySize=auto;html=1;exitX=1;exitY=0.75;exitDx=0;exitDy=0;entryX=0;entryY=0.75;entryDx=0;entryDy=0;labelBackgroundColor=default;strokeColor=#7EA6E0;strokeWidth=3;fontFamily=Helvetica;fontSize=11;fontColor=default;endArrow=none;endFill=0;" edge="1" parent="1" source="VjrMN6myHZ9YJszXmR57-245" target="VjrMN6myHZ9YJszXmR57-250">
          <mxGeometry relative="1" as="geometry" />
        </mxCell>
        <mxCell id="VjrMN6myHZ9YJszXmR57-245" value="" style="rounded=0;whiteSpace=wrap;html=1;fillColor=#7EA6E0;strokeColor=#7EA6E0;movable=1;resizable=1;rotatable=1;deletable=1;editable=1;locked=0;connectable=1;rotation=0;" vertex="1" parent="1">
          <mxGeometry x="450" y="530" width="60" height="28" as="geometry" />
        </mxCell>
        <mxCell id="VjrMN6myHZ9YJszXmR57-246" style="edgeStyle=orthogonalEdgeStyle;shape=connector;rounded=0;orthogonalLoop=1;jettySize=auto;html=1;exitX=0;exitY=0.25;exitDx=0;exitDy=0;entryX=1;entryY=0.25;entryDx=0;entryDy=0;labelBackgroundColor=default;strokeColor=#7EA6E0;strokeWidth=3;fontFamily=Helvetica;fontSize=11;fontColor=default;endArrow=none;endFill=0;" edge="1" parent="1" source="VjrMN6myHZ9YJszXmR57-248" target="VjrMN6myHZ9YJszXmR57-249">
          <mxGeometry relative="1" as="geometry" />
        </mxCell>
        <mxCell id="VjrMN6myHZ9YJszXmR57-247" style="edgeStyle=orthogonalEdgeStyle;shape=connector;rounded=0;orthogonalLoop=1;jettySize=auto;html=1;exitX=1;exitY=0.25;exitDx=0;exitDy=0;entryX=1;entryY=0.75;entryDx=0;entryDy=0;labelBackgroundColor=default;strokeColor=#7EA6E0;strokeWidth=3;fontFamily=Helvetica;fontSize=11;fontColor=default;endArrow=none;endFill=0;" edge="1" parent="1" source="VjrMN6myHZ9YJszXmR57-248" target="VjrMN6myHZ9YJszXmR57-250">
          <mxGeometry relative="1" as="geometry" />
        </mxCell>
        <mxCell id="VjrMN6myHZ9YJszXmR57-248" value="" style="rounded=0;whiteSpace=wrap;html=1;fillColor=#7EA6E0;strokeColor=#7EA6E0;movable=1;resizable=1;rotatable=1;deletable=1;editable=1;locked=0;connectable=1;rotation=0;" vertex="1" parent="1">
          <mxGeometry x="450" y="640" width="60" height="28.5" as="geometry" />
        </mxCell>
        <mxCell id="VjrMN6myHZ9YJszXmR57-249" value="" style="rounded=0;whiteSpace=wrap;html=1;fillColor=#7EA6E0;strokeColor=#7EA6E0;movable=1;resizable=1;rotatable=1;deletable=1;editable=1;locked=0;connectable=1;rotation=90;" vertex="1" parent="1">
          <mxGeometry x="390" y="585" width="60" height="28.5" as="geometry" />
        </mxCell>
        <mxCell id="VjrMN6myHZ9YJszXmR57-250" value="" style="rounded=0;whiteSpace=wrap;html=1;fillColor=#7EA6E0;strokeColor=#7EA6E0;movable=1;resizable=1;rotatable=1;deletable=1;editable=1;locked=0;connectable=1;rotation=90;" vertex="1" parent="1">
          <mxGeometry x="510" y="584.5" width="60" height="28.5" as="geometry" />
        </mxCell>
        <mxCell id="VjrMN6myHZ9YJszXmR57-251" value="" style="rounded=0;whiteSpace=wrap;html=1;fillColor=#7EA6E0;strokeColor=#7EA6E0;movable=1;resizable=1;rotatable=1;deletable=1;editable=1;locked=0;connectable=1;rotation=90;" vertex="1" parent="1">
          <mxGeometry x="390" y="695.5" width="60" height="28.5" as="geometry" />
        </mxCell>
        <mxCell id="VjrMN6myHZ9YJszXmR57-252" style="edgeStyle=orthogonalEdgeStyle;shape=connector;rounded=0;orthogonalLoop=1;jettySize=auto;html=1;exitX=0;exitY=0.75;exitDx=0;exitDy=0;entryX=0;entryY=0.25;entryDx=0;entryDy=0;labelBackgroundColor=default;strokeColor=#7EA6E0;strokeWidth=3;fontFamily=Helvetica;fontSize=11;fontColor=default;endArrow=none;endFill=0;" edge="1" parent="1" source="VjrMN6myHZ9YJszXmR57-254" target="VjrMN6myHZ9YJszXmR57-258">
          <mxGeometry relative="1" as="geometry" />
        </mxCell>
        <mxCell id="VjrMN6myHZ9YJszXmR57-253" style="edgeStyle=orthogonalEdgeStyle;shape=connector;rounded=0;orthogonalLoop=1;jettySize=auto;html=1;exitX=1;exitY=0.75;exitDx=0;exitDy=0;entryX=0;entryY=0.75;entryDx=0;entryDy=0;labelBackgroundColor=default;strokeColor=#7EA6E0;strokeWidth=3;fontFamily=Helvetica;fontSize=11;fontColor=default;endArrow=none;endFill=0;" edge="1" parent="1" source="VjrMN6myHZ9YJszXmR57-254" target="VjrMN6myHZ9YJszXmR57-259">
          <mxGeometry relative="1" as="geometry" />
        </mxCell>
        <mxCell id="VjrMN6myHZ9YJszXmR57-254" value="" style="rounded=0;whiteSpace=wrap;html=1;fillColor=#7EA6E0;strokeColor=#7EA6E0;movable=1;resizable=1;rotatable=1;deletable=1;editable=1;locked=0;connectable=1;rotation=0;" vertex="1" parent="1">
          <mxGeometry x="450" y="640.5" width="60" height="28" as="geometry" />
        </mxCell>
        <mxCell id="VjrMN6myHZ9YJszXmR57-255" style="edgeStyle=orthogonalEdgeStyle;shape=connector;rounded=0;orthogonalLoop=1;jettySize=auto;html=1;exitX=0;exitY=0.25;exitDx=0;exitDy=0;entryX=1;entryY=0.25;entryDx=0;entryDy=0;labelBackgroundColor=default;strokeColor=#7EA6E0;strokeWidth=3;fontFamily=Helvetica;fontSize=11;fontColor=default;endArrow=none;endFill=0;" edge="1" parent="1" source="VjrMN6myHZ9YJszXmR57-257" target="VjrMN6myHZ9YJszXmR57-258">
          <mxGeometry relative="1" as="geometry" />
        </mxCell>
        <mxCell id="VjrMN6myHZ9YJszXmR57-256" style="edgeStyle=orthogonalEdgeStyle;shape=connector;rounded=0;orthogonalLoop=1;jettySize=auto;html=1;exitX=1;exitY=0.25;exitDx=0;exitDy=0;entryX=1;entryY=0.75;entryDx=0;entryDy=0;labelBackgroundColor=default;strokeColor=#7EA6E0;strokeWidth=3;fontFamily=Helvetica;fontSize=11;fontColor=default;endArrow=none;endFill=0;" edge="1" parent="1" source="VjrMN6myHZ9YJszXmR57-257" target="VjrMN6myHZ9YJszXmR57-259">
          <mxGeometry relative="1" as="geometry" />
        </mxCell>
        <mxCell id="VjrMN6myHZ9YJszXmR57-257" value="" style="rounded=0;whiteSpace=wrap;html=1;fillColor=#7EA6E0;strokeColor=#7EA6E0;movable=1;resizable=1;rotatable=1;deletable=1;editable=1;locked=0;connectable=1;rotation=0;" vertex="1" parent="1">
          <mxGeometry x="450" y="750.5" width="60" height="28.5" as="geometry" />
        </mxCell>
        <mxCell id="VjrMN6myHZ9YJszXmR57-258" value="" style="rounded=0;whiteSpace=wrap;html=1;fillColor=#7EA6E0;strokeColor=#7EA6E0;movable=1;resizable=1;rotatable=1;deletable=1;editable=1;locked=0;connectable=1;rotation=90;" vertex="1" parent="1">
          <mxGeometry x="390" y="695.5" width="60" height="28.5" as="geometry" />
        </mxCell>
        <mxCell id="VjrMN6myHZ9YJszXmR57-259" value="" style="rounded=0;whiteSpace=wrap;html=1;fillColor=#7EA6E0;strokeColor=#7EA6E0;movable=1;resizable=1;rotatable=1;deletable=1;editable=1;locked=0;connectable=1;rotation=90;" vertex="1" parent="1">
          <mxGeometry x="510" y="695" width="60" height="28.5" as="geometry" />
        </mxCell>
      </root>
    </mxGraphModel>
  </diagram>
</mxfile>
